<mxfile host="Electron" modified="2024-12-12T05:36:07.281Z" agent="Mozilla/5.0 (Windows NT 10.0; Win64; x64) AppleWebKit/537.36 (KHTML, like Gecko) draw.io/21.6.1 Chrome/112.0.5615.204 Electron/24.6.1 Safari/537.36" etag="TZMTv5Uk2IIckEYCUTJm" version="21.6.1" type="device">
  <diagram name="Page-1" id="yJoy_IYK90HluwyDs-gQ">
    <mxGraphModel dx="1948" dy="820" grid="0" gridSize="10" guides="1" tooltips="1" connect="1" arrows="1" fold="1" page="1" pageScale="1" pageWidth="850" pageHeight="1100" math="0" shadow="0">
      <root>
        <mxCell id="0" />
        <mxCell id="1" parent="0" />
        <mxCell id="_vPrxCRFG7x8GexHSrTj-1" value="" style="rounded=0;whiteSpace=wrap;html=1;" vertex="1" parent="1">
          <mxGeometry x="105" y="23" width="634" height="786" as="geometry" />
        </mxCell>
        <mxCell id="_vPrxCRFG7x8GexHSrTj-2" value="customer" style="shape=umlActor;verticalLabelPosition=bottom;verticalAlign=top;html=1;outlineConnect=0;" vertex="1" parent="1">
          <mxGeometry x="-85" y="394" width="37" height="59" as="geometry" />
        </mxCell>
        <mxCell id="_vPrxCRFG7x8GexHSrTj-3" value="admin" style="shape=umlActor;verticalLabelPosition=bottom;verticalAlign=top;html=1;outlineConnect=0;" vertex="1" parent="1">
          <mxGeometry x="819" y="165" width="36" height="72" as="geometry" />
        </mxCell>
        <mxCell id="_vPrxCRFG7x8GexHSrTj-4" value="trader" style="shape=umlActor;verticalLabelPosition=bottom;verticalAlign=top;html=1;outlineConnect=0;" vertex="1" parent="1">
          <mxGeometry x="788" y="579" width="36" height="72" as="geometry" />
        </mxCell>
        <mxCell id="_vPrxCRFG7x8GexHSrTj-5" value="Register" style="ellipse;whiteSpace=wrap;html=1;" vertex="1" parent="1">
          <mxGeometry x="193" y="46" width="147" height="59" as="geometry" />
        </mxCell>
        <mxCell id="_vPrxCRFG7x8GexHSrTj-6" value="Make profile" style="ellipse;whiteSpace=wrap;html=1;" vertex="1" parent="1">
          <mxGeometry x="193" y="114" width="147" height="59" as="geometry" />
        </mxCell>
        <mxCell id="_vPrxCRFG7x8GexHSrTj-7" value="Search a product" style="ellipse;whiteSpace=wrap;html=1;" vertex="1" parent="1">
          <mxGeometry x="193" y="191.5" width="147" height="59" as="geometry" />
        </mxCell>
        <mxCell id="_vPrxCRFG7x8GexHSrTj-8" value="Adds to cart" style="ellipse;whiteSpace=wrap;html=1;" vertex="1" parent="1">
          <mxGeometry x="193" y="268" width="147" height="59" as="geometry" />
        </mxCell>
        <mxCell id="_vPrxCRFG7x8GexHSrTj-11" value="Filter search" style="ellipse;whiteSpace=wrap;html=1;" vertex="1" parent="1">
          <mxGeometry x="193" y="344" width="147" height="59" as="geometry" />
        </mxCell>
        <mxCell id="_vPrxCRFG7x8GexHSrTj-15" value="Filter by quality" style="ellipse;whiteSpace=wrap;html=1;" vertex="1" parent="1">
          <mxGeometry x="297" y="419" width="147" height="59" as="geometry" />
        </mxCell>
        <mxCell id="_vPrxCRFG7x8GexHSrTj-16" value="Filter by range" style="ellipse;whiteSpace=wrap;html=1;" vertex="1" parent="1">
          <mxGeometry x="112" y="419" width="147" height="59" as="geometry" />
        </mxCell>
        <mxCell id="_vPrxCRFG7x8GexHSrTj-17" value="Purchase a product" style="ellipse;whiteSpace=wrap;html=1;" vertex="1" parent="1">
          <mxGeometry x="193" y="498" width="147" height="59" as="geometry" />
        </mxCell>
        <mxCell id="_vPrxCRFG7x8GexHSrTj-18" value="Gift wrap item" style="ellipse;whiteSpace=wrap;html=1;" vertex="1" parent="1">
          <mxGeometry x="253" y="582" width="95" height="44" as="geometry" />
        </mxCell>
        <mxCell id="_vPrxCRFG7x8GexHSrTj-19" value="Pay by card" style="ellipse;whiteSpace=wrap;html=1;" vertex="1" parent="1">
          <mxGeometry x="362" y="579.5" width="86" height="31" as="geometry" />
        </mxCell>
        <mxCell id="_vPrxCRFG7x8GexHSrTj-20" value="Pay on delivery" style="ellipse;whiteSpace=wrap;html=1;" vertex="1" parent="1">
          <mxGeometry x="398" y="505" width="95" height="59" as="geometry" />
        </mxCell>
        <mxCell id="_vPrxCRFG7x8GexHSrTj-21" value="Adds feedback" style="ellipse;whiteSpace=wrap;html=1;" vertex="1" parent="1">
          <mxGeometry x="239" y="638" width="136" height="59" as="geometry" />
        </mxCell>
        <mxCell id="_vPrxCRFG7x8GexHSrTj-22" value="Checks order status" style="ellipse;whiteSpace=wrap;html=1;" vertex="1" parent="1">
          <mxGeometry x="239" y="709" width="147" height="59" as="geometry" />
        </mxCell>
        <mxCell id="_vPrxCRFG7x8GexHSrTj-23" value="Login" style="ellipse;whiteSpace=wrap;html=1;" vertex="1" parent="1">
          <mxGeometry x="404" y="686" width="75" height="43" as="geometry" />
        </mxCell>
        <mxCell id="_vPrxCRFG7x8GexHSrTj-26" value="" style="endArrow=none;html=1;rounded=0;exitX=1;exitY=0.3333333333333333;exitDx=0;exitDy=0;exitPerimeter=0;entryX=0;entryY=0.5;entryDx=0;entryDy=0;" edge="1" parent="1" source="_vPrxCRFG7x8GexHSrTj-2" target="_vPrxCRFG7x8GexHSrTj-8">
          <mxGeometry width="50" height="50" relative="1" as="geometry">
            <mxPoint x="399" y="425" as="sourcePoint" />
            <mxPoint x="449" y="375" as="targetPoint" />
          </mxGeometry>
        </mxCell>
        <mxCell id="_vPrxCRFG7x8GexHSrTj-29" value="" style="endArrow=none;html=1;rounded=0;exitX=1;exitY=0.3333333333333333;exitDx=0;exitDy=0;exitPerimeter=0;" edge="1" parent="1" source="_vPrxCRFG7x8GexHSrTj-2" target="_vPrxCRFG7x8GexHSrTj-7">
          <mxGeometry width="50" height="50" relative="1" as="geometry">
            <mxPoint x="399" y="425" as="sourcePoint" />
            <mxPoint x="449" y="375" as="targetPoint" />
          </mxGeometry>
        </mxCell>
        <mxCell id="_vPrxCRFG7x8GexHSrTj-30" value="" style="endArrow=none;html=1;rounded=0;exitX=1;exitY=0.3333333333333333;exitDx=0;exitDy=0;exitPerimeter=0;" edge="1" parent="1" source="_vPrxCRFG7x8GexHSrTj-2" target="_vPrxCRFG7x8GexHSrTj-6">
          <mxGeometry width="50" height="50" relative="1" as="geometry">
            <mxPoint x="399" y="425" as="sourcePoint" />
            <mxPoint x="449" y="375" as="targetPoint" />
          </mxGeometry>
        </mxCell>
        <mxCell id="_vPrxCRFG7x8GexHSrTj-31" value="" style="endArrow=none;html=1;rounded=0;exitX=1;exitY=0.3333333333333333;exitDx=0;exitDy=0;exitPerimeter=0;" edge="1" parent="1" source="_vPrxCRFG7x8GexHSrTj-2" target="_vPrxCRFG7x8GexHSrTj-11">
          <mxGeometry width="50" height="50" relative="1" as="geometry">
            <mxPoint x="399" y="425" as="sourcePoint" />
            <mxPoint x="449" y="375" as="targetPoint" />
          </mxGeometry>
        </mxCell>
        <mxCell id="_vPrxCRFG7x8GexHSrTj-32" value="" style="endArrow=none;html=1;rounded=0;exitX=1;exitY=0.3333333333333333;exitDx=0;exitDy=0;exitPerimeter=0;entryX=0;entryY=0.5;entryDx=0;entryDy=0;" edge="1" parent="1" source="_vPrxCRFG7x8GexHSrTj-2" target="_vPrxCRFG7x8GexHSrTj-17">
          <mxGeometry width="50" height="50" relative="1" as="geometry">
            <mxPoint x="399" y="425" as="sourcePoint" />
            <mxPoint x="449" y="375" as="targetPoint" />
          </mxGeometry>
        </mxCell>
        <mxCell id="_vPrxCRFG7x8GexHSrTj-33" value="" style="endArrow=none;html=1;rounded=0;exitX=1;exitY=0.3333333333333333;exitDx=0;exitDy=0;exitPerimeter=0;" edge="1" parent="1" source="_vPrxCRFG7x8GexHSrTj-2" target="_vPrxCRFG7x8GexHSrTj-21">
          <mxGeometry width="50" height="50" relative="1" as="geometry">
            <mxPoint x="399" y="425" as="sourcePoint" />
            <mxPoint x="449" y="375" as="targetPoint" />
          </mxGeometry>
        </mxCell>
        <mxCell id="_vPrxCRFG7x8GexHSrTj-34" value="" style="endArrow=none;html=1;rounded=0;exitX=1;exitY=0.3333333333333333;exitDx=0;exitDy=0;exitPerimeter=0;" edge="1" parent="1" source="_vPrxCRFG7x8GexHSrTj-2" target="_vPrxCRFG7x8GexHSrTj-22">
          <mxGeometry width="50" height="50" relative="1" as="geometry">
            <mxPoint x="399" y="425" as="sourcePoint" />
            <mxPoint x="449" y="375" as="targetPoint" />
          </mxGeometry>
        </mxCell>
        <mxCell id="_vPrxCRFG7x8GexHSrTj-36" value="" style="endArrow=none;html=1;rounded=0;exitX=1;exitY=0.3333333333333333;exitDx=0;exitDy=0;exitPerimeter=0;entryX=0;entryY=1;entryDx=0;entryDy=0;" edge="1" parent="1" source="_vPrxCRFG7x8GexHSrTj-2" target="_vPrxCRFG7x8GexHSrTj-5">
          <mxGeometry width="50" height="50" relative="1" as="geometry">
            <mxPoint x="399" y="425" as="sourcePoint" />
            <mxPoint x="449" y="375" as="targetPoint" />
          </mxGeometry>
        </mxCell>
        <mxCell id="_vPrxCRFG7x8GexHSrTj-37" value="extend" style="html=1;verticalAlign=bottom;endArrow=open;dashed=1;endSize=8;edgeStyle=elbowEdgeStyle;elbow=vertical;curved=0;rounded=0;exitX=0.558;exitY=0.034;exitDx=0;exitDy=0;exitPerimeter=0;entryX=0.5;entryY=1;entryDx=0;entryDy=0;" edge="1" parent="1" source="_vPrxCRFG7x8GexHSrTj-16" target="_vPrxCRFG7x8GexHSrTj-11">
          <mxGeometry relative="1" as="geometry">
            <mxPoint x="464" y="400" as="sourcePoint" />
            <mxPoint x="258" y="416" as="targetPoint" />
            <Array as="points">
              <mxPoint x="252" y="405" />
            </Array>
          </mxGeometry>
        </mxCell>
        <mxCell id="_vPrxCRFG7x8GexHSrTj-38" value="extend" style="html=1;verticalAlign=bottom;endArrow=open;dashed=1;endSize=8;edgeStyle=elbowEdgeStyle;elbow=vertical;curved=0;rounded=0;exitX=0.626;exitY=0.017;exitDx=0;exitDy=0;exitPerimeter=0;" edge="1" parent="1" source="_vPrxCRFG7x8GexHSrTj-15">
          <mxGeometry relative="1" as="geometry">
            <mxPoint x="395.5" y="407" as="sourcePoint" />
            <mxPoint x="294" y="397" as="targetPoint" />
            <Array as="points">
              <mxPoint x="299" y="397" />
            </Array>
          </mxGeometry>
        </mxCell>
        <mxCell id="_vPrxCRFG7x8GexHSrTj-39" value="include" style="html=1;verticalAlign=bottom;endArrow=open;dashed=1;endSize=8;edgeStyle=elbowEdgeStyle;elbow=vertical;curved=0;rounded=0;" edge="1" parent="1" source="_vPrxCRFG7x8GexHSrTj-17" target="_vPrxCRFG7x8GexHSrTj-18">
          <mxGeometry relative="1" as="geometry">
            <mxPoint x="464" y="400" as="sourcePoint" />
            <mxPoint x="384" y="400" as="targetPoint" />
          </mxGeometry>
        </mxCell>
        <mxCell id="_vPrxCRFG7x8GexHSrTj-41" value="extend" style="html=1;verticalAlign=bottom;endArrow=open;dashed=1;endSize=8;edgeStyle=elbowEdgeStyle;elbow=vertical;curved=0;rounded=0;entryX=1;entryY=0.5;entryDx=0;entryDy=0;" edge="1" parent="1" source="_vPrxCRFG7x8GexHSrTj-20" target="_vPrxCRFG7x8GexHSrTj-17">
          <mxGeometry relative="1" as="geometry">
            <mxPoint x="464" y="400" as="sourcePoint" />
            <mxPoint x="384" y="400" as="targetPoint" />
          </mxGeometry>
        </mxCell>
        <mxCell id="_vPrxCRFG7x8GexHSrTj-42" value="includes" style="html=1;verticalAlign=bottom;endArrow=open;dashed=1;endSize=8;edgeStyle=elbowEdgeStyle;elbow=vertical;curved=0;rounded=0;entryX=0.24;entryY=0.119;entryDx=0;entryDy=0;entryPerimeter=0;" edge="1" parent="1" source="_vPrxCRFG7x8GexHSrTj-22" target="_vPrxCRFG7x8GexHSrTj-23">
          <mxGeometry relative="1" as="geometry">
            <mxPoint x="464" y="400" as="sourcePoint" />
            <mxPoint x="384" y="400" as="targetPoint" />
          </mxGeometry>
        </mxCell>
        <mxCell id="_vPrxCRFG7x8GexHSrTj-43" value="Add ads" style="ellipse;whiteSpace=wrap;html=1;" vertex="1" parent="1">
          <mxGeometry x="461" y="32" width="147" height="43" as="geometry" />
        </mxCell>
        <mxCell id="_vPrxCRFG7x8GexHSrTj-50" value="View customer profile" style="ellipse;whiteSpace=wrap;html=1;" vertex="1" parent="1">
          <mxGeometry x="473" y="88" width="147" height="43" as="geometry" />
        </mxCell>
        <mxCell id="_vPrxCRFG7x8GexHSrTj-51" value="View trader profile" style="ellipse;whiteSpace=wrap;html=1;" vertex="1" parent="1">
          <mxGeometry x="468" y="148.5" width="147" height="43" as="geometry" />
        </mxCell>
        <mxCell id="_vPrxCRFG7x8GexHSrTj-52" value="Block user" style="ellipse;whiteSpace=wrap;html=1;" vertex="1" parent="1">
          <mxGeometry x="479" y="203" width="147" height="43" as="geometry" />
        </mxCell>
        <mxCell id="_vPrxCRFG7x8GexHSrTj-53" value="Block trader" style="ellipse;whiteSpace=wrap;html=1;" vertex="1" parent="1">
          <mxGeometry x="487" y="263" width="147" height="43" as="geometry" />
        </mxCell>
        <mxCell id="_vPrxCRFG7x8GexHSrTj-54" value="Verify trader profile" style="ellipse;whiteSpace=wrap;html=1;" vertex="1" parent="1">
          <mxGeometry x="502" y="322" width="147" height="43" as="geometry" />
        </mxCell>
        <mxCell id="_vPrxCRFG7x8GexHSrTj-55" value="Verify user profile" style="ellipse;whiteSpace=wrap;html=1;" vertex="1" parent="1">
          <mxGeometry x="520" y="384" width="147" height="43" as="geometry" />
        </mxCell>
        <mxCell id="_vPrxCRFG7x8GexHSrTj-56" value="" style="endArrow=none;html=1;rounded=0;entryX=0;entryY=0.347;entryDx=0;entryDy=0;entryPerimeter=0;" edge="1" parent="1" source="_vPrxCRFG7x8GexHSrTj-43" target="_vPrxCRFG7x8GexHSrTj-3">
          <mxGeometry width="50" height="50" relative="1" as="geometry">
            <mxPoint x="399" y="425" as="sourcePoint" />
            <mxPoint x="449" y="375" as="targetPoint" />
          </mxGeometry>
        </mxCell>
        <mxCell id="_vPrxCRFG7x8GexHSrTj-57" value="" style="endArrow=none;html=1;rounded=0;entryX=0;entryY=0.3333333333333333;entryDx=0;entryDy=0;entryPerimeter=0;" edge="1" parent="1" source="_vPrxCRFG7x8GexHSrTj-50" target="_vPrxCRFG7x8GexHSrTj-3">
          <mxGeometry width="50" height="50" relative="1" as="geometry">
            <mxPoint x="399" y="425" as="sourcePoint" />
            <mxPoint x="449" y="375" as="targetPoint" />
          </mxGeometry>
        </mxCell>
        <mxCell id="_vPrxCRFG7x8GexHSrTj-58" value="" style="endArrow=none;html=1;rounded=0;entryX=0;entryY=0.3333333333333333;entryDx=0;entryDy=0;entryPerimeter=0;" edge="1" parent="1" source="_vPrxCRFG7x8GexHSrTj-51" target="_vPrxCRFG7x8GexHSrTj-3">
          <mxGeometry width="50" height="50" relative="1" as="geometry">
            <mxPoint x="399" y="425" as="sourcePoint" />
            <mxPoint x="449" y="375" as="targetPoint" />
          </mxGeometry>
        </mxCell>
        <mxCell id="_vPrxCRFG7x8GexHSrTj-59" value="" style="endArrow=none;html=1;rounded=0;entryX=0;entryY=0.3333333333333333;entryDx=0;entryDy=0;entryPerimeter=0;exitX=1;exitY=0;exitDx=0;exitDy=0;" edge="1" parent="1" source="_vPrxCRFG7x8GexHSrTj-52" target="_vPrxCRFG7x8GexHSrTj-3">
          <mxGeometry width="50" height="50" relative="1" as="geometry">
            <mxPoint x="399" y="425" as="sourcePoint" />
            <mxPoint x="449" y="375" as="targetPoint" />
          </mxGeometry>
        </mxCell>
        <mxCell id="_vPrxCRFG7x8GexHSrTj-60" value="" style="endArrow=none;html=1;rounded=0;entryX=0;entryY=0.3333333333333333;entryDx=0;entryDy=0;entryPerimeter=0;" edge="1" parent="1" source="_vPrxCRFG7x8GexHSrTj-53" target="_vPrxCRFG7x8GexHSrTj-3">
          <mxGeometry width="50" height="50" relative="1" as="geometry">
            <mxPoint x="399" y="425" as="sourcePoint" />
            <mxPoint x="449" y="375" as="targetPoint" />
          </mxGeometry>
        </mxCell>
        <mxCell id="_vPrxCRFG7x8GexHSrTj-61" value="" style="endArrow=none;html=1;rounded=0;entryX=0;entryY=0.3333333333333333;entryDx=0;entryDy=0;entryPerimeter=0;" edge="1" parent="1" source="_vPrxCRFG7x8GexHSrTj-54" target="_vPrxCRFG7x8GexHSrTj-3">
          <mxGeometry width="50" height="50" relative="1" as="geometry">
            <mxPoint x="399" y="425" as="sourcePoint" />
            <mxPoint x="449" y="375" as="targetPoint" />
          </mxGeometry>
        </mxCell>
        <mxCell id="_vPrxCRFG7x8GexHSrTj-62" value="" style="endArrow=none;html=1;rounded=0;entryX=0;entryY=0.3333333333333333;entryDx=0;entryDy=0;entryPerimeter=0;" edge="1" parent="1" source="_vPrxCRFG7x8GexHSrTj-55" target="_vPrxCRFG7x8GexHSrTj-3">
          <mxGeometry width="50" height="50" relative="1" as="geometry">
            <mxPoint x="399" y="425" as="sourcePoint" />
            <mxPoint x="449" y="375" as="targetPoint" />
          </mxGeometry>
        </mxCell>
        <mxCell id="_vPrxCRFG7x8GexHSrTj-63" value="Register" style="ellipse;whiteSpace=wrap;html=1;" vertex="1" parent="1">
          <mxGeometry x="542" y="462" width="147" height="43" as="geometry" />
        </mxCell>
        <mxCell id="_vPrxCRFG7x8GexHSrTj-64" value="Add a product" style="ellipse;whiteSpace=wrap;html=1;" vertex="1" parent="1">
          <mxGeometry x="542" y="521" width="147" height="43" as="geometry" />
        </mxCell>
        <mxCell id="_vPrxCRFG7x8GexHSrTj-65" value="Update product details" style="ellipse;whiteSpace=wrap;html=1;" vertex="1" parent="1">
          <mxGeometry x="540" y="575" width="147" height="43" as="geometry" />
        </mxCell>
        <mxCell id="_vPrxCRFG7x8GexHSrTj-66" value="Sell product" style="ellipse;whiteSpace=wrap;html=1;" vertex="1" parent="1">
          <mxGeometry x="538" y="628" width="147" height="43" as="geometry" />
        </mxCell>
        <mxCell id="_vPrxCRFG7x8GexHSrTj-67" value="Accept payments" style="ellipse;whiteSpace=wrap;html=1;" vertex="1" parent="1">
          <mxGeometry x="542" y="680" width="147" height="43" as="geometry" />
        </mxCell>
        <mxCell id="_vPrxCRFG7x8GexHSrTj-68" value="Adds discounts" style="ellipse;whiteSpace=wrap;html=1;" vertex="1" parent="1">
          <mxGeometry x="549" y="741" width="147" height="43" as="geometry" />
        </mxCell>
        <mxCell id="_vPrxCRFG7x8GexHSrTj-72" value="" style="endArrow=none;html=1;rounded=0;entryX=0;entryY=0.3333333333333333;entryDx=0;entryDy=0;entryPerimeter=0;exitX=0.905;exitY=0.744;exitDx=0;exitDy=0;exitPerimeter=0;" edge="1" parent="1" source="_vPrxCRFG7x8GexHSrTj-63" target="_vPrxCRFG7x8GexHSrTj-4">
          <mxGeometry width="50" height="50" relative="1" as="geometry">
            <mxPoint x="399" y="425" as="sourcePoint" />
            <mxPoint x="449" y="375" as="targetPoint" />
          </mxGeometry>
        </mxCell>
        <mxCell id="_vPrxCRFG7x8GexHSrTj-73" value="" style="endArrow=none;html=1;rounded=0;entryX=0;entryY=0.3333333333333333;entryDx=0;entryDy=0;entryPerimeter=0;" edge="1" parent="1" source="_vPrxCRFG7x8GexHSrTj-64" target="_vPrxCRFG7x8GexHSrTj-4">
          <mxGeometry width="50" height="50" relative="1" as="geometry">
            <mxPoint x="399" y="425" as="sourcePoint" />
            <mxPoint x="449" y="375" as="targetPoint" />
          </mxGeometry>
        </mxCell>
        <mxCell id="_vPrxCRFG7x8GexHSrTj-74" value="" style="endArrow=none;html=1;rounded=0;entryX=0;entryY=0.3333333333333333;entryDx=0;entryDy=0;entryPerimeter=0;exitX=1;exitY=0.5;exitDx=0;exitDy=0;" edge="1" parent="1" source="_vPrxCRFG7x8GexHSrTj-65" target="_vPrxCRFG7x8GexHSrTj-4">
          <mxGeometry width="50" height="50" relative="1" as="geometry">
            <mxPoint x="399" y="425" as="sourcePoint" />
            <mxPoint x="449" y="375" as="targetPoint" />
          </mxGeometry>
        </mxCell>
        <mxCell id="_vPrxCRFG7x8GexHSrTj-75" value="" style="endArrow=none;html=1;rounded=0;entryX=0;entryY=0.3333333333333333;entryDx=0;entryDy=0;entryPerimeter=0;" edge="1" parent="1" source="_vPrxCRFG7x8GexHSrTj-66" target="_vPrxCRFG7x8GexHSrTj-4">
          <mxGeometry width="50" height="50" relative="1" as="geometry">
            <mxPoint x="399" y="425" as="sourcePoint" />
            <mxPoint x="449" y="375" as="targetPoint" />
          </mxGeometry>
        </mxCell>
        <mxCell id="_vPrxCRFG7x8GexHSrTj-76" value="" style="endArrow=none;html=1;rounded=0;entryX=0;entryY=0.3333333333333333;entryDx=0;entryDy=0;entryPerimeter=0;" edge="1" parent="1" source="_vPrxCRFG7x8GexHSrTj-67" target="_vPrxCRFG7x8GexHSrTj-4">
          <mxGeometry width="50" height="50" relative="1" as="geometry">
            <mxPoint x="399" y="425" as="sourcePoint" />
            <mxPoint x="449" y="375" as="targetPoint" />
          </mxGeometry>
        </mxCell>
        <mxCell id="_vPrxCRFG7x8GexHSrTj-77" value="" style="endArrow=none;html=1;rounded=0;entryX=0;entryY=0.3333333333333333;entryDx=0;entryDy=0;entryPerimeter=0;exitX=0.946;exitY=0.674;exitDx=0;exitDy=0;exitPerimeter=0;" edge="1" parent="1" source="_vPrxCRFG7x8GexHSrTj-68" target="_vPrxCRFG7x8GexHSrTj-4">
          <mxGeometry width="50" height="50" relative="1" as="geometry">
            <mxPoint x="399" y="425" as="sourcePoint" />
            <mxPoint x="449" y="375" as="targetPoint" />
          </mxGeometry>
        </mxCell>
        <mxCell id="_vPrxCRFG7x8GexHSrTj-78" value="extend" style="html=1;verticalAlign=bottom;endArrow=open;dashed=1;endSize=8;edgeStyle=elbowEdgeStyle;elbow=vertical;curved=0;rounded=0;entryX=0.939;entryY=0.763;entryDx=0;entryDy=0;entryPerimeter=0;exitX=0.372;exitY=-0.145;exitDx=0;exitDy=0;exitPerimeter=0;" edge="1" parent="1" source="_vPrxCRFG7x8GexHSrTj-19" target="_vPrxCRFG7x8GexHSrTj-17">
          <mxGeometry relative="1" as="geometry">
            <mxPoint x="331" y="809" as="sourcePoint" />
            <mxPoint x="350" y="538" as="targetPoint" />
            <Array as="points">
              <mxPoint x="364" y="562" />
            </Array>
          </mxGeometry>
        </mxCell>
      </root>
    </mxGraphModel>
  </diagram>
</mxfile>
